<svg xmlns="http://www.w3.org/2000/svg" viewBox="0 0 32 32" fill="none">
  <!-- Background -->
  <circle cx="16" cy="16" r="15" fill="#F8E8E8"/>
  <circle cx="16" cy="16" r="13" fill="#FFFEF7"/>
  
  <!-- Heart -->
  <path d="M16 26C16 26 6 18 6 12C6 8 9 5 13 5C15 5 16 7 16 7C16 7 17 5 19 5C23 5 26 8 26 12C26 18 16 26 16 26Z" fill="#D4A5A5"/>
  <path d="M16 24C16 24 8 17.5 8 12.5C8 9.5 10.5 7 13.5 7C15 7 16 8.5 16 8.5C16 8.5 17 7 18.5 7C21.5 7 24 9.5 24 12.5C24 17.5 16 24 16 24Z" fill="#E8C4C4"/>
  <ellipse cx="13" cy="11" rx="2" ry="1.5" fill="#F8E8E8" opacity="0.5"/>
  
  <!-- Ring -->
  <ellipse cx="22" cy="23" rx="6" ry="3" fill="none" stroke="#D4AF37" stroke-width="1.5"/>
  
  <!-- Diamond -->
  <path d="M22 18L24 20L22 22L20 20L22 18Z" fill="#D4AF37"/>
  <path d="M22 18.5L23.5 20L22 21.5L20.5 20L22 18.5Z" fill="#FFE4E1"/>
</svg>
