<svg xmlns="http://www.w3.org/2000/svg" viewBox="0 0 64 64" fill="none">
  <!-- Background circle -->
  <circle cx="32" cy="32" r="30" fill="#F8E8E8"/>
  <circle cx="32" cy="32" r="28" fill="#FFFEF7"/>
  
  <!-- Heart -->
  <path d="M32 52C32 52 12 36 12 24C12 16 18 10 26 10C30 10 32 14 32 14C32 14 34 10 38 10C46 10 52 16 52 24C52 36 32 52 32 52Z" fill="#D4A5A5"/>
  <path d="M32 48C32 48 16 35 16 25C16 19 20 14 26 14C29 14 31 17 32 18C33 17 35 14 38 14C44 14 48 19 48 25C48 35 32 48 32 48Z" fill="#E8C4C4"/>
  <ellipse cx="26" cy="22" rx="4" ry="3" fill="#F8E8E8" opacity="0.6"/>
  
  <!-- Ring -->
  <ellipse cx="44" cy="46" rx="12" ry="6" fill="none" stroke="#D4AF37" stroke-width="3"/>
  <ellipse cx="44" cy="46" rx="12" ry="6" fill="none" stroke="#B8860B" stroke-width="1.5" stroke-dasharray="2 4"/>
  
  <!-- Diamond on ring -->
  <path d="M44 36L48 40L44 44L40 40L44 36Z" fill="#D4AF37"/>
  <path d="M44 37L47 40L44 43L41 40L44 37Z" fill="#FFE4E1"/>
  <path d="M44 38L46 40L44 42L42 40L44 38Z" fill="#FFFFFF"/>
</svg>
